# AST/ASF file generated using VICON BodyLanguage
# -----------------------------------------------
:version 1.10
:name VICON
:units
  mass 1.0
  length 0.45
  angle deg
:documentation
   .ast/.asf automatically generated from VICON data using
   VICON BodyBuilder and BodyLanguage model FoxedUp or BRILLIANT.MOD
:root
   order TX TY TZ RX RY RZ
   axis XYZ
   position 0 0 0  
   orientation 0 0 0 
:bonedata
  begin
     id 1 
     name lhipjoint
     direction 0.734343 -0.627749 0.258209 
     length 2.5437 
     axis 0 0 0  XYZ
  end
  begin
     id 2 
     name lfemur
     direction 0.34202 -0.939693 0  
     length 6.7391  
     axis 0 0 20  XYZ
    dof rx ry rz
    limits (-160.0 20.0)
           (-70.0 70.0)
           (-60.0 70.0)
  end
  begin
     id 3 
     name ltibia
     direction 0.34202 -0.939693 0   
     length 7.21536   
     axis 0 0 20   XYZ
    dof rx
    limits (-10.0 170.0)
  end
  begin
     id 4 
     name lfoot
     direction 0.0489572 -0.134509 0.989702   
     length 1.61313   
     axis -90 7.62852e-016 20   XYZ
    dof rx rz
    limits (-45.0 90.0)
           (-70.0 20.0)
  end
  begin
     id 5 
     name ltoes
     direction 1.53451e-011 -4.21692e-011 1   
     length 0.823104   
     axis -90 7.62852e-016 20   XYZ
    dof rx
    limits (-90.0 20.0)
  end
  begin
     id 6 
     name rhipjoint
     direction -0.746398 -0.615468 0.253157   
     length 2.59446  
     axis 0 0 0  XYZ 
  end
  begin
     id 7 
     name rfemur
     direction -0.34202 -0.939693 0   
     length 6.7075   
     axis 0 0 -20   XYZ
    dof rx ry rz
    limits (-160.0 20.0)
           (-70.0 70.0)
           (-70.0 60.0)
  end
  begin
     id 8 
     name rtibia
     direction -0.34202 -0.939693 0   
     length 7.27262   
     axis 0 0 -20   XYZ
    dof rx
    limits (-10.0 170.0)
 end
 begin
     id 9 
     name rfoot
     direction -0.0455203 -0.125066 0.991104   
     length 1.91095  
     axis -90 -7.62852e-016 -20   XYZ
    dof rx rz
    limits (-45.0 90.0)
           (-20.0 70.0)
  end
  begin
     id 10 
     name rtoes
     direction -1.53601e-011 -4.21913e-011 1   
     length 0.969037   
     axis -90 -7.62852e-016 -20   XYZ
    dof rx
    limits (-90.0 20.0)
  end
  begin
     id 11 
     name lowerback
     direction 0.0181546 0.999122 -0.0377542   
     length 1.99916   
     axis 0 0 0   XYZ
    dof rx ry rz
    limits (-20.0 45.0)
           (-30.0 30.0)
           (-30.0 30.0)
  end
  begin
     id 12 
     name upperback
     direction 0.0203486 0.99589 0.0882534   
     length 1.951   
     axis 0 0 0   XYZ
    dof rx ry rz
    limits (-20.0 45.0)
           (-30.0 30.0)
           (-30.0 30.0)
  end
  begin
     id 13 
     name thorax
     direction 0.0131685 0.994241 0.106355   
     length 1.97461   
     axis 0 0 0   XYZ
    dof rx ry rz
    limits (-20.0 45.0)
           (-30.0 30.0)
           (-30.0 30.0)
  end
  begin
     id 14 
     name lowerneck
     direction -0.0281395 0.999325 0.023617   
     length 1.7959   
     axis 0 0 0   XYZ
    dof rx ry rz
    limits (-20.0 45.0)
           (-30.0 30.0)
           (-30.0 30.0)
  end
  begin
     id 15 
     name upperneck
     direction 0.0288721 0.991984 -0.123019   
     length 1.79917   
     axis 0 0 0   XYZ
    dof rx ry rz
    limits (-20.0 45.0)
           (-30.0 30.0)
           (-30.0 30.0)
  end
  begin
     id 16
     name head
     direction 0.0133797 0.998944 -0.0439492  
     length 1.80902  
     axis 0 0 0   XYZ
    dof rx ry rz
    limits (-20.0 45.0)
           (-30.0 30.0)
           (-30.0 30.0)
  end
  begin
     id 17 
     name lclavicle
     direction 0.919195 0.377107 0.113449  
     length 3.17815  
     axis 0 0 0   XYZ
    dof ry rz
    limits (-20.0 10.0)
           (0.0 20.0)
  end
  begin
     id 18 
     name lhumerus
     direction 1 -4.48959e-011 2.13129e-027   
     length 4.84137   
     axis 180 -30 -90   XYZ
    dof rx ry rz
    limits (-60.0 90.0)
           (-90.0 90.0)
           (-90.0 90.0)
  end
  begin
     id 19
     name lradius
     direction 1 -4.48957e-011 -6.30627e-028   
     length 3.2452   
     axis 180 -30 -90   XYZ
    dof rx
    limits (-10.0 170.0)
  end
  begin
     id 20
     name lwrist
     direction 1 -4.4901e-011 9.13299e-027   
     length 1.6226   
     axis -6.84618e-015 90 90   XYZ
    dof ry
    limits (-180.0 0.0)
 end
  begin
     id 21 
     name lhand
     direction 1 -4.48816e-011 1.82293e-026   
     length 0.521221   
     axis -1.16502e-014 90 90   XYZ
    dof rx rz
    limits (-90.0 90.0)
           (-45.0 45.0)
  end
  begin
     id 22 
     name lfingers
     direction 1 -4.49108e-011 3.65687e-026   
     length 0.420221   
     axis -2.33008e-014 90 90   XYZ
    dof rx
    limits (0.0 90.0)
  end
  begin
     id 23
     name lthumb
     direction 0.707107 -6.34943e-011 0.707107   
     length 0.603356   
     axis -90 45 5.69224e-014   XYZ
    dof rx rz
    limits (-45.0 45.0)
           (-45.0 45.0)
  end
  begin
     id 24 
     name rclavicle
     direction -0.90847 0.38596 0.160368   
     length 3.12973  
     axis 0 0 0   XYZ 
    dof ry rz
    limits (-10.0 20.0)
           (-20.0 0.0)
  end
  begin
     id 25 
     name rhumerus
     direction -1 -4.48974e-011 4.47268e-028  
     length 4.72284   
     axis 180 30 90   XYZ
    dof rx ry rz
    limits (-90.0 60.0)
           (-90.0 90.0)
           (-90.0 90.0)
  end
  begin
     id 26 
     name rradius
     direction -1 -4.48969e-011 3.43203e-027   
     length 3.23459   
     axis 180 30 90   XYZ
    dof rx
    limits (-10.0 170.0)
  end
  begin
     id 27 
     name rwrist
     direction -1 -4.48969e-011 9.12911e-027   
     length 1.6173   
     axis -6.84618e-015 -90 -90   XYZ
    dof ry
    limits (-180.0 0.0)
  end
  begin
     id 28
     name rhand
     direction -1 -4.49194e-011 1.83006e-026   
     length 0.307416   
     axis -1.16502e-014 -90 -90   XYZ
    dof rx rz
    limits (-90.0 90.0)
           (-45.0 45.0)
  end
  begin
     id 29
     name rfingers
     direction -1 -4.48423e-011 3.63103e-026   
     length 0.247847   
     axis -2.33008e-014 -90 -90   XYZ
    dof rx
    limits (0.0 90.0)
  end
  begin
     id 30
     name rthumb
     direction -0.707107 -6.34802e-011 0.707107   
     length 0.35586   
     axis -90 -45 -5.69224e-014   XYZ
    dof rx rz
    limits (-45.0 45.0)
           (-45.0 45.0)
  end
:hierarchy
  begin
    root lhipjoint rhipjoint lowerback
    lhipjoint lfemur
    lfemur ltibia
    ltibia lfoot
    lfoot ltoes
    rhipjoint rfemur
    rfemur rtibia
    rtibia rfoot
    rfoot rtoes
    lowerback upperback
    upperback thorax
    thorax lowerneck lclavicle rclavicle
    lowerneck upperneck
    upperneck head
    lclavicle lhumerus
    lhumerus lradius
    lradius lwrist
    lwrist lhand lthumb
    lhand lfingers
    rclavicle rhumerus
    rhumerus rradius
    rradius rwrist
    rwrist rhand rthumb
    rhand rfingers
  end

#!OML:ASF H:\Terrain\Patient Classification 1\Animal1\Tuesday\Animal1.ASF
:FULLY-SPECIFIED
:DEGREES
756
root 4.20381 15.6495 -3.96528 40.795 -38.9005 -3.08826
lowerback 15.9772 -0.743345 4.46717
upperback -8.61658 0.711933 4.2034
thorax -19.2495 0.123846 2.22695
lowerneck 4.4969 2.82587 -3.16215
upperneck -23.0389 4.4394 5.18004
head -8.02091 1.79285 1.90777
rclavicle -2.34566e-014 -2.8625e-014
rhumerus -42.1679 -26.2703 15.9582
rradius 27.4291
rwrist -69.3247
rhand -45.4335 9.36173
rfingers 7.12502
rthumb -18.2008 -19.8067
lclavicle -2.34566e-014 -2.8625e-014
lhumerus -57.6243 42.5419 -30.1115
lradius 24.351
lwrist -0.541886
lhand 10.9245 63.6793
lfingers 7.12502
lthumb 36.0027 449.995
rfemur -72.1182 12.9316 16.2022
rtibia 45.7774
rfoot -8.70439 -8.00239
rtoes -9.95264
lfemur -49.6215 -10.0039 -4.111
ltibia 56.4352
lfoot -15.6532 10.3169
ltoes -8.07875
757
root 4.19963 15.6537 -3.97415 40.6786 -39.0708 -2.97807
lowerback 16.0954 -0.809186 4.35254
upperback -8.58653 0.602428 4.21245
thorax -19.2889 0.0919955 2.33946
lowerneck 4.56605 2.92169 -3.30925
upperneck -22.9246 4.56591 5.24566
head -8.00609 1.86133 1.94189
rclavicle -7.55382e-015 2.94201e-014
rhumerus -39.3863 -25.4753 13.1309
rradius 28.4317
rwrist -70.637
rhand -41.1954 6.02355
rfingers 7.12502
rthumb -14.1199 -23.4767
lclavicle -7.55382e-015 2.94201e-014
lhumerus -53.8088 40.8194 -24.851
lradius 25.4829
lwrist 3.00715
lhand 12.9864 61.1259
lfingers 7.12502
lthumb 37.953 446.938
rfemur -72.104 13.0155 15.9901
rtibia 45.7331
rfoot -8.79196 -7.79677
rtoes -8.33789
lfemur -49.5656 -10.0394 -4.23624
ltibia 56.4092
lfoot -15.3151 10.4232
ltoes -7.49059
758
root 4.18841 15.6723 -3.98086 40.7165 -39.2533 -3.14158
lowerback 16.2413 -0.745938 4.32651
upperback -8.58034 0.706234 4.28369
thorax -19.3821 0.148351 2.40973
lowerneck 4.54057 2.95282 -3.44983
upperneck -22.7071 4.5863 5.24534
head -7.93284 1.88844 1.96241
rclavicle 3.06128e-014 -2.3059e-014
rhumerus -37.0056 -25.1268 11.075
rradius 29.1896
rwrist -70.713
rhand -35.8268 3.56516
rfingers 7.12502
rthumb -8.94264 -26.2253
lclavicle 3.06128e-014 -2.3059e-014
lhumerus -50.0273 38.6192 -19.5149
lradius 26.7597
lwrist 6.92945
lhand 16.0616 58.4476
lfingers 7.12502
lthumb 40.85 443.411
rfemur -71.948 13.2007 16.0552
rtibia 45.6036
rfoot -8.96689 -7.50161
rtoes -6.21301
lfemur -49.4057 -9.84498 -4.23805
ltibia 56.4178
lfoot -15.2707 10.3829
ltoes -6.28567
759
root 4.18296 15.6648 -3.98927 40.8727 -39.2125 -3.39108
lowerback 16.3678 -0.781963 4.48477
upperback -8.57643 0.72599 4.41034
thorax -19.4672 0.148959 2.46956
lowerneck 4.58917 3.01388 -3.53306
upperneck -22.781 4.67022 5.28109
head -7.97347 1.92957 1.9812
rclavicle -4.37326e-014 1.90833e-014
rhumerus -34.6179 -25.0928 9.15851
rradius 29.6501
rwrist -70.2557
rhand -29.0728 2.23961
rfingers 7.12502
rthumb -2.42199 -27.7264
lclavicle -4.37326e-014 1.90833e-014
lhumerus -47.1318 37.1305 -15.7522
lradius 27.8132
lwrist 9.67627
lhand 21.6263 59.058
lfingers 7.12502
lthumb 46.047 442.133
rfemur -71.8441 13.2269 16.4351
rtibia 45.4403
rfoot -8.75991 -7.53885
rtoes -8.00079
lfemur -49.4988 -9.70902 -4.01959
ltibia 56.5495
lfoot -15.1865 10.4384
ltoes -6.46327
760
root 4.17832 15.6624 -3.99954 40.8935 -39.0856 -3.47624
lowerback 16.5438 -0.864064 4.60254
upperback -8.55545 0.671688 4.50791
thorax -19.5615 0.120084 2.54265
lowerneck 4.81057 3.03518 -3.55669
upperneck -23.1229 4.70921 5.30648
head -8.13199 1.93696 1.99002
rclavicle 9.62118e-014 -3.26007e-014
rhumerus -32.3531 -24.0465 7.05414
rradius 30.3378
rwrist -70.9649
rhand -21.2733 2.26576
rfingers 7.12502
rthumb 5.11048 -27.6526
lclavicle 9.62118e-014 -3.26007e-014
lhumerus -44.7713 36.5513 -13.1362
lradius 28.5825
lwrist 11.2253
lhand 27.9801 52.6216
lfingers 7.12502
lthumb 51.8821 432.797
rfemur -71.6717 13.1811 16.6867
rtibia 45.2258
rfoot -8.54092 -7.63383
rtoes -9.82406
lfemur -49.5886 -9.69812 -3.83896
ltibia 56.6334
lfoot -14.9821 10.4352
ltoes -5.14423
761
root 4.1725 15.6667 -4.0083 40.815 -38.9992 -3.52155
lowerback 16.7703 -0.836013 4.71997
upperback -8.48228 0.755031 4.49781
thorax -19.618 0.141544 2.43904
lowerneck 4.75573 2.92339 -3.35314
upperneck -23.2855 4.55404 5.17526
head -8.16126 1.85452 1.92735
rclavicle 6.04305e-014 -8.11041e-014
rhumerus -30.8248 -22.6171 5.40989
rradius 31.2021
rwrist -72.4569
rhand -12.6328 3.71397
rfingers 7.12502
rthumb 13.4471 -25.832
lclavicle 6.04305e-014 -8.11041e-014
lhumerus -42.3072 36.2437 -10.5799
lradius 29.4187
lwrist 12.6722
lhand 34.8414 46.0423
lfingers 7.12502
lthumb 57.9989 421.765
rfemur -71.4404 13.2116 16.8105
rtibia 45.0406
rfoot -8.60328 -7.71582
rtoes -9.77963
lfemur -49.5405 -9.8143 -3.65967
ltibia 56.654
lfoot -14.9024 10.2523
ltoes -8.9016
762
root 4.16655 15.6807 -4.01362 40.6162 -39.0869 -3.28964
lowerback 16.949 -0.760193 4.65018
upperback -8.37605 0.829497 4.3532
thorax -19.5926 0.17061 2.27792
lowerneck 4.37868 2.79796 -3.07518
upperneck -23.3209 4.37702 4.99845
head -8.08562 1.76565 1.84183
rclavicle 5.56597e-015 -7.63333e-014
rhumerus -29.7875 -22.3699 4.40979
rradius 31.8767
rwrist -73.4576
rhand -2.36578 6.03381
rfingers 7.12502
rthumb 23.3225 -22.5734
lclavicle 5.56597e-015 -7.63333e-014
lhumerus -40.0342 35.9084 -8.21292
lradius 30.3331
lwrist 14.3749
lhand 43.8673 43.3304
lfingers 7.12502
lthumb 65.5129 409.63
rfemur -71.2514 13.2068 16.6096
rtibia 44.7821
rfoot -8.36531 -7.86703
rtoes -11.1509
lfemur -49.481 -10.0179 -3.80924
ltibia 56.481
lfoot -14.4201 10.4879
ltoes -8.10138
763
root 4.15863 15.6986 -4.01736 40.5204 -39.3305 -2.80707
lowerback 16.9199 -0.751081 4.26971
upperback -8.37909 0.731581 4.28113
thorax -19.5735 0.170679 2.43798
lowerneck 4.03028 2.82249 -3.08352
upperneck -23.2159 4.37299 4.83412
head -7.98347 1.78532 1.79269
rclavicle -3.1408e-014 -2.54444e-014
rhumerus -28.5238 -22.7661 3.55383
rradius 32.4696
rwrist -74.5754
rhand 9.70877 8.69826
rfingers 7.12502
rthumb 34.8501 -17.8927
lclavicle -3.1408e-014 -2.54444e-014
lhumerus -38.4823 35.52 -6.41076
lradius 31.0761
lwrist 16.1566
lhand 55.0813 44.1442
lfingers 7.12502
lthumb 72.8599 387.577
rfemur -71.4115 13.1414 16.0702
rtibia 44.574
rfoot -8.06409 -7.86588
rtoes -12.0178
lfemur -49.6904 -10.0465 -4.28385
ltibia 56.2286
lfoot -13.8934 10.7256
ltoes -5.00667
764
root 4.14503 15.7222 -4.01977 40.6888 -39.3989 -2.67589
lowerback 16.8179 -0.796636 4.10862
upperback -8.42202 0.641191 4.4045
thorax -19.5645 0.163723 2.70677
lowerneck 3.94254 2.89658 -3.3212
upperneck -23.2202 4.42143 4.71053
head -7.97417 1.84082 1.78903
rclavicle -3.18055e-014 -2.8625e-014
rhumerus -27.2598 -23.4532 2.80922
rradius 33.0636
rwrist -75.9023
rhand 21.2609 10.9688
rfingers 7.12502
rthumb 45.7078 -12.2464
lclavicle -3.18055e-014 -2.8625e-014
lhumerus -37.4379 35.2751 -5.09342
lradius 31.6237
lwrist 18.0202
lhand 68.6138 46.8511
lfingers 7.12502
lthumb 74.1314 343.258
rfemur -71.5285 13.1775 15.8588
rtibia 44.3377
rfoot -8.2108 -7.85831
rtoes -10.5396
lfemur -49.8043 -9.97965 -4.32326
ltibia 55.8708
lfoot -13.7329 10.4475
ltoes -3.02917
765
root 4.13161 15.7204 -4.01865 40.7709 -39.3718 -2.68943
lowerback 16.8573 -0.803799 4.16027
upperback -8.41556 0.65542 4.45501
thorax -19.5845 0.16834 2.73443
lowerneck 4.09955 2.87691 -3.58806
upperneck -23.5137 4.3833 4.78898
head -8.10754 1.83083 1.8638
rclavicle -1.51076e-014 -5.32743e-014
rhumerus -26.5931 -24.6663 2.42492
rradius 33.5729
rwrist -77.0078
rhand 30.191 11.8216
rfingers 7.12502
rthumb 53.8786 -7.09817
lclavicle -1.51076e-014 -5.32743e-014
lhumerus -36.3976 35.415 -4.11536
lradius 32.016
lwrist 20.0426
lhand 74.4102 48.71
lfingers 7.12502
lthumb 71.4721 328.353
rfemur -71.5229 13.3307 15.7499
rtibia 44.193
rfoot -8.3833 -7.94291
rtoes -8.50226
lfemur -49.6364 -10.0461 -4.15586
ltibia 55.5626
lfoot -13.5617 10.2112
ltoes -4.42733
766
root 4.11502 15.7279 -4.01532 40.8117 -39.4149 -2.58312
lowerback 16.9218 -0.831944 4.08738
upperback -8.43669 0.602194 4.44164
thorax -19.6545 0.153754 2.7812
lowerneck 4.31666 2.9147 -3.86689
upperneck -23.8313 4.45686 5.01662
head -8.26961 1.86016 1.98106
rclavicle -2.10712e-014 1.19271e-014
rhumerus -26.1357 -25.9947 2.10539
rradius 33.9356
rwrist -78.127
rhand 37.1842 11.9086
rfingers 7.12502
rthumb 60.0229 -1.84765
lclavicle -2.10712e-014 1.19271e-014
lhumerus -35.8232 35.8273 -3.65143
lradius 32.5011
lwrist 22.4033
lhand 78.6355 52.406
lfingers 7.12502
lthumb 68.7557 323.068
rfemur -71.4957 13.4974 15.484
rtibia 43.9562
rfoot -8.31278 -8.07112
rtoes -7.52297
lfemur -49.4859 -10.096 -4.1608
ltibia 55.234
lfoot -13.3024 10.2937
ltoes -5.29265
767
root 4.09703 15.738 -4.01537 40.9345 -39.3665 -2.50878
lowerback 16.9808 -0.831843 4.03433
upperback -8.44525 0.601426 4.4861
thorax -19.707 0.165301 2.86765
lowerneck 4.43642 2.91166 -3.86424
upperneck -24.1429 4.43247 4.90191
head -8.39412 1.85159 1.94529
rclavicle -7.95139e-015 -8.74653e-014
rhumerus -26.0852 -27.4188 2.08206
rradius 34.0627
rwrist -78.7723
rhand 42.8005 11.9766
rfingers 7.12502
rthumb 64.672 4.26292
lclavicle -7.95139e-015 -8.74653e-014
lhumerus -35.624 36.6075 -3.31315
lradius 33.0148
lwrist 24.8279
lhand 82.9038 57.3006
lfingers 7.12502
lthumb 66.3262 321.318
rfemur -71.5341 13.6053 15.3128
rtibia 43.7472
rfoot -8.19021 -8.26337
rtoes -7.40945
lfemur -49.5816 -10.0836 -4.09768
ltibia 54.9915
lfoot -13.1341 10.1994
ltoes -10.9348
768
root 4.07314 15.7684 -4.01955 41.067 -39.2458 -2.4107
lowerback 16.9923 -0.817196 3.98695
upperback -8.42224 0.614965 4.51796
thorax -19.6856 0.180832 2.92684
lowerneck 4.38109 2.82799 -3.62117
upperneck -24.3651 4.27959 4.59038
head -8.44039 1.78279 1.81494
rclavicle -3.22031e-014 1.51076e-014
rhumerus -26.5548 -28.8082 2.29263
rradius 34.0656
rwrist -79.0854
rhand 45.8625 11.074
rfingers 7.12502
rthumb 67.0381 7.70344
lclavicle -3.22031e-014 1.51076e-014
lhumerus -35.6632 37.8812 -3.33873
lradius 33.127
lwrist 26.3648
lhand 79.5363 61.5135
lfingers 7.12502
lthumb 68.117 330.568
rfemur -71.5085 13.6717 15.1748
rtibia 43.4694
rfoot -8.12239 -8.4592
rtoes -7.16106
lfemur -49.7633 -10.1247 -3.9839
ltibia 54.6715
lfoot -12.7 10.1429
ltoes -8.27408
769
root 4.04804 15.7813 -4.01805 41.211 -39.2154 -2.24403
lowerback 16.9097 -0.971704 3.76639
upperback -8.38545 0.340457 4.54077
thorax -19.5744 0.0913888 3.16501
lowerneck 4.354 2.96278 -3.43883
upperneck -24.6321 4.47374 4.4864
head -8.5298 1.86188 1.73419
rclavicle 1.98785e-014 5.00937e-014
rhumerus -26.7848 -29.6518 1.94332
rradius 34.0147
rwrist -79.3134
rhand 45.8705 9.96463
rfingers 7.12502
rthumb 67.0441 6.60665
lclavicle 1.98785e-014 5.00937e-014
lhumerus -36.5537 38.9826 -4.45567
lradius 32.9348
lwrist 26.8928
lhand 79.9658 64.7484
lfingers 7.12502
lthumb 67.8064 333.07
rfemur -71.625 13.7362 14.9178
rtibia 43.2611
rfoot -8.05619 -8.61412
rtoes -6.98695
lfemur -49.8762 -10.1487 -3.98998
ltibia 54.3505
lfoot -12.4487 10.202
ltoes -8.41843
